# xmcd CD database file
#
# Track frame offsets:
#	150
#	21357
#	40164
#
# Disc length: 778 seconds
#
# Revision: 0
# Processed by: cddbd v1.5.1PL0 Copyright (c) Steve Scherf et al.
# Submitted via: CDex 1.51
#
DISCID=1d030803
DTITLE=MADARA - 3.1415926535・・・
DYEAR=2004
DGENRE=Rock
TTITLE0=3.1415926535・・・
TTITLE1=ギロチン
TTITLE2=夢の夢
EXTD=YEAR: 2004
EXTT0=
EXTT1=
EXTT2=
PLAYORDER=
